<svg width="114" height="17" viewBox="0 0 114 17" fill="none" xmlns="http://www.w3.org/2000/svg">
<path d="M9.196 7.146C9.03133 6.88 8.797 6.67733 8.493 6.538C8.189 6.386 7.82167 6.31 7.391 6.31C6.58033 6.31 5.95333 6.576 5.51 7.108C5.06667 7.62733 4.845 8.343 4.845 9.255C4.845 10.3063 5.092 11.0917 5.586 11.611C6.08 12.1303 6.84 12.39 7.866 12.39C8.84133 12.39 9.62667 11.9973 10.222 11.212H6.859V8.229H13.718V12.447C13.1353 13.4477 12.331 14.309 11.305 15.031C10.279 15.7403 8.98067 16.095 7.41 16.095C6.01667 16.095 4.80067 15.81 3.762 15.24C2.736 14.6573 1.94433 13.8467 1.387 12.808C0.842333 11.7693 0.57 10.585 0.57 9.255C0.57 7.925 0.842333 6.74067 1.387 5.702C1.94433 4.66333 2.736 3.859 3.762 3.289C4.788 2.70633 5.99133 2.415 7.372 2.415C9.13267 2.415 10.564 2.83933 11.666 3.688C12.7807 4.53667 13.4393 5.68933 13.642 7.146H9.196ZM19.5151 4.429C18.7804 4.429 18.1914 4.23267 17.7481 3.84C17.3048 3.44733 17.0831 2.95333 17.0831 2.358C17.0831 1.75 17.3048 1.24967 17.7481 0.856999C18.1914 0.451666 18.7804 0.248999 19.5151 0.248999C20.2371 0.248999 20.8198 0.451666 21.2631 0.856999C21.7064 1.24967 21.9281 1.75 21.9281 2.358C21.9281 2.95333 21.7064 3.44733 21.2631 3.84C20.8198 4.23267 20.2371 4.429 19.5151 4.429ZM21.6051 5.284V16H17.3871V5.284H21.6051ZM32.3292 12.409V16H30.7332C27.7945 16 26.3252 14.537 26.3252 11.611V8.799H24.9952V5.284H26.3252V2.7H30.5432V5.284H32.2912V8.799H30.5432V11.687C30.5432 11.9403 30.6002 12.124 30.7142 12.238C30.8408 12.352 31.0435 12.409 31.3222 12.409H32.3292ZM41.3485 16.133C39.7399 16.133 38.4099 15.7593 37.3585 15.012C36.3199 14.252 35.7562 13.1437 35.6675 11.687H40.1515C40.2149 12.4597 40.5569 12.846 41.1775 12.846C41.4055 12.846 41.5955 12.7953 41.7475 12.694C41.9122 12.58 41.9945 12.409 41.9945 12.181C41.9945 11.8643 41.8235 11.611 41.4815 11.421C41.1395 11.2183 40.6075 10.9903 39.8855 10.737C39.0242 10.433 38.3085 10.1353 37.7385 9.844C37.1812 9.55267 36.6999 9.12833 36.2945 8.571C35.8892 8.01367 35.6929 7.298 35.7055 6.424C35.7055 5.55 35.9272 4.809 36.3705 4.201C36.8265 3.58033 37.4409 3.11167 38.2135 2.795C38.9989 2.47833 39.8792 2.32 40.8545 2.32C42.5012 2.32 43.8059 2.7 44.7685 3.46C45.7439 4.22 46.2569 5.29033 46.3075 6.671H41.7665C41.7539 6.291 41.6589 6.01867 41.4815 5.854C41.3042 5.68933 41.0889 5.607 40.8355 5.607C40.6582 5.607 40.5125 5.67033 40.3985 5.797C40.2845 5.911 40.2275 6.07567 40.2275 6.291C40.2275 6.595 40.3922 6.84833 40.7215 7.051C41.0635 7.241 41.6019 7.47533 42.3365 7.754C43.1852 8.07067 43.8819 8.37467 44.4265 8.666C44.9839 8.95733 45.4652 9.36267 45.8705 9.882C46.2759 10.4013 46.4785 11.0537 46.4785 11.839C46.4785 12.6623 46.2759 13.4033 45.8705 14.062C45.4652 14.708 44.8762 15.2147 44.1035 15.582C43.3309 15.9493 42.4125 16.133 41.3485 16.133ZM56.7795 12.409V16H55.1835C52.2449 16 50.7755 14.537 50.7755 11.611V8.799H49.4455V5.284H50.7755V2.7H54.9935V5.284H56.7415V8.799H54.9935V11.687C54.9935 11.9403 55.0505 12.124 55.1645 12.238C55.2912 12.352 55.4939 12.409 55.7725 12.409H56.7795ZM59.9659 10.642C59.9659 9.51467 60.1559 8.53933 60.5359 7.716C60.9286 6.88 61.4606 6.24667 62.1319 5.816C62.8033 5.37267 63.5569 5.151 64.3929 5.151C65.0896 5.151 65.6913 5.29667 66.1979 5.588C66.7046 5.86667 67.0909 6.253 67.3569 6.747V5.284H71.5559V16H67.3569V14.537C67.0909 15.031 66.7046 15.4237 66.1979 15.715C65.6913 15.9937 65.0896 16.133 64.3929 16.133C63.5569 16.133 62.8033 15.9177 62.1319 15.487C61.4606 15.0437 60.9286 14.4103 60.5359 13.587C60.1559 12.751 59.9659 11.7693 59.9659 10.642ZM67.3569 10.642C67.3569 10.072 67.2113 9.62867 66.9199 9.312C66.6286 8.99533 66.2549 8.837 65.7989 8.837C65.3429 8.837 64.9693 8.99533 64.6779 9.312C64.3866 9.62867 64.2409 10.072 64.2409 10.642C64.2409 11.212 64.3866 11.6553 64.6779 11.972C64.9693 12.2887 65.3429 12.447 65.7989 12.447C66.2549 12.447 66.6286 12.2887 66.9199 11.972C67.2113 11.6553 67.3569 11.212 67.3569 10.642ZM75.03 10.642C75.03 9.52733 75.258 8.55833 75.714 7.735C76.1827 6.899 76.8287 6.25933 77.652 5.816C78.488 5.37267 79.438 5.151 80.502 5.151C81.8953 5.151 83.067 5.54367 84.017 6.329C84.9797 7.11433 85.5877 8.20367 85.841 9.597H81.376C81.2113 9.03967 80.8883 8.761 80.407 8.761C80.065 8.761 79.7927 8.91933 79.59 9.236C79.4 9.55267 79.305 10.0213 79.305 10.642C79.305 11.2627 79.4 11.7313 79.59 12.048C79.7927 12.3647 80.065 12.523 80.407 12.523C80.8883 12.523 81.2113 12.2443 81.376 11.687H85.841C85.5877 13.0803 84.9797 14.1697 84.017 14.955C83.067 15.7403 81.8953 16.133 80.502 16.133C79.438 16.133 78.488 15.9113 77.652 15.468C76.8287 15.0247 76.1827 14.3913 75.714 13.568C75.258 12.732 75.03 11.7567 75.03 10.642ZM96.1871 16L93.5461 11.725V16H89.3281V1.94H93.5461V9.293L96.2251 5.284H101.127L97.1181 10.68L101.222 16H96.1871ZM109.087 16.133C108.074 16.133 107.174 15.9683 106.389 15.639C105.616 15.3097 105.002 14.8537 104.546 14.271C104.09 13.6883 103.83 13.0297 103.767 12.295H107.814C107.865 12.6117 107.998 12.846 108.213 12.998C108.441 13.15 108.726 13.226 109.068 13.226C109.283 13.226 109.454 13.1817 109.581 13.093C109.708 12.9917 109.771 12.8713 109.771 12.732C109.771 12.4913 109.638 12.3203 109.372 12.219C109.106 12.1177 108.656 12.0037 108.023 11.877C107.25 11.725 106.611 11.5603 106.104 11.383C105.61 11.2057 105.173 10.9017 104.793 10.471C104.426 10.0403 104.242 9.445 104.242 8.685C104.242 8.02633 104.413 7.431 104.755 6.899C105.11 6.35433 105.629 5.93 106.313 5.626C106.997 5.30933 107.827 5.151 108.802 5.151C110.246 5.151 111.373 5.50567 112.184 6.215C113.007 6.92433 113.501 7.849 113.666 8.989H109.923C109.86 8.69767 109.727 8.476 109.524 8.324C109.321 8.15933 109.049 8.077 108.707 8.077C108.492 8.077 108.327 8.12133 108.213 8.21C108.099 8.286 108.042 8.40633 108.042 8.571C108.042 8.78633 108.175 8.951 108.441 9.065C108.707 9.16633 109.131 9.274 109.714 9.388C110.487 9.54 111.139 9.711 111.671 9.901C112.203 10.091 112.665 10.4203 113.058 10.889C113.451 11.345 113.647 11.9783 113.647 12.789C113.647 13.4223 113.463 13.9923 113.096 14.499C112.729 15.0057 112.197 15.4047 111.5 15.696C110.816 15.9873 110.012 16.133 109.087 16.133Z" fill="white"/>
</svg>
